{"title":"Dirty Grandpa 2016 TS XviD-STANDARD","uid":13380528,"size":1109854266,"categoryP":"video","categoryS":"movies","magnet":"?xt=urn:btih:6eb3d7b9928c864b43e5d60c5e7f5845690ff2b1&amp;dn=Dirty+Grandpa+2016+TS+XviD-STANDARD&amp;tr=udp%3A%2F%2Ftracker.leechers-paradise.org%3A6969&amp;tr=udp%3A%2F%2Fzer0day.ch%3A1337&amp;tr=udp%3A%2F%2Fopen.demonii.com%3A1337&amp;tr=udp%3A%2F%2Ftracker.coppersurfer.tk%3A6969&amp;tr=udp%3A%2F%2Fexodus.desync.com%3A6969","seeders":12,"leechers":3,"uploader":".BONE.","files":1,"time":1454272858,"description":"[center][img]http://s10.postimg.org/jjd4djqah/hghgg.jpg[/img]\r\n \r\nDirty.Grandpa.2016.TS.XviD-STANDARD\r\n \r\nSOURCES USED WERE - D.CAMRip.1400MB // audio - exclusive\r\n \r\nWORK DONE = gave it a 3.0 rotate first off then fix perspective better, so its kinda straight now unlike the source file and the other rip, enjoy.\r\n \r\n[url]http://www.imdb.com/title/tt1860213/[/url]\r\n \r\nRight before his wedding, an uptight guy is tricked into driving his grandfather, a perverted former Army Lieutenant-Colonel &quot;Special Forces&quot; to Florida for spring break.\r\n \r\nGeneral\r\nComplete name               : Dirty.Grandpa.2016.TS.XviD-STANDARD.avi\r\nFormat                      : AVI\r\nFormat/Info                 : Audio Video Interleave\r\nFile size                   : 1.03 GiB\r\nDuration                    : 1h 35mn\r\nOverall bit rate            : 1 548 Kbps\r\n \r\nVideo\r\nID                          : 0\r\nFormat                      : MPEG-4 Visual\r\nFormat profile              : Advanced   \r\nFormat settings, BVOP       : 2\r\nFormat settings, QPel       : No\r\nFormat settings, GMC        : No warppoints\r\nFormat settings, Matrix     : Default (H.263)\r\nMuxing mode                 : Packed bitstream\r\nCodec ID                    : XVID\r\nCodec ID/Hint               : XviD\r\nDuration                    : 1h 35mn\r\nBit rate                    : 1 348 Kbps\r\nWidth                       : 720 pixels\r\nHeight                      : 274 pixels\r\nDisplay aspect ratio        : 2.628\r\nFrame rate                  : 30.000 fps\r\nColor space                 : YUV\r\nChroma subsampling          : 4:2:0\r\nBit depth                   : 8 bits\r\nScan type                   : Progressive\r\nCompression mode            : Lossy\r\nBits/(Pixel*Frame)          : 0.228\r\nStream size                 : 922 MiB (87%)\r\nWriting library             : XviD 64\r\n \r\nAudio\r\nID                          : 1\r\nFormat                      : MPEG Audio\r\nFormat version              : Version 1\r\nFormat profile              : Layer 3\r\nMode                        : Joint stereo\r\nMode extension              : MS Stereo\r\nCodec ID                    : 55\r\nCodec ID/Hint               : MP3\r\nDuration                    : 1h 35mn\r\nBit rate mode               : Constant\r\nBit rate                    : 192 Kbps\r\nChannel(s)                  : 2 channels\r\nSampling rate               : 48.0 KHz\r\nCompression mode            : Lossy\r\nStream size                 : 131 MiB (12%)\r\nAlignment                   : Aligned on interleaves\r\nInterleave, duration        : 133 ms (4.00 video frames)\r\nInterleave, preload duratio : 216 ms\r\nTitle                       : Exclusive\r\nWriting library             : LAME3.99r\r\nEncoding settings           : -m j -V 4 -q 2 -lowpass 18.6 -b 192\r\n  \nhttp://i.imgur.com/Oeo1Wta.png \nhttp://i.imgur.com/6CQE4K2.png \nhttp://i.imgur.com/pbt2swt.png \nhttp://i.imgur.com/m0S14bV.png \nhttp://i.imgur.com/NsYRBZA.png \nhttp://i.imgur.com/7lKYMgF.jpg","torrent":{"xt":"urn:btih:6eb3d7b9928c864b43e5d60c5e7f5845690ff2b1","amp;dn":"Dirty+Grandpa+2016+TS+XviD-STANDARD","amp;tr":["udp%3A%2F%2Ftracker.leechers-paradise.org%3A6969","udp%3A%2F%2Fzer0day.ch%3A1337","udp%3A%2F%2Fopen.demonii.com%3A1337","udp%3A%2F%2Ftracker.coppersurfer.tk%3A6969","udp%3A%2F%2Fexodus.desync.com%3A6969"],"infoHash":"6eb3d7b9928c864b43e5d60c5e7f5845690ff2b1","infoHashBuffer":{"type":"Buffer","data":[110,179,215,185,146,140,134,75,67,229,214,12,94,127,88,69,105,15,242,177]},"announce":[],"urlList":[]}}